<svg aria-hidden="true" style="position: absolute; width: 0; height: 0; overflow: hidden;" version="1.1" xmlns="http://www.w3.org/2000/svg" xmlns:xlink="http://www.w3.org/1999/xlink">
<defs>
<symbol id="icon-flickr" viewBox="0 0 32 32">
<title>flickr</title>
<path d="M0 16c0 4.099 3.325 7.419 7.42 7.419 4.1 0 7.425-3.32 7.425-7.419s-3.324-7.419-7.425-7.419c-4.093 0-7.42 3.32-7.42 7.419zM17.155 16c0 4.099 3.324 7.419 7.423 7.419 4.084 0 7.423-3.32 7.423-7.419s-3.323-7.419-7.419-7.419c-4.1 0-7.427 3.32-7.427 7.419z"></path>
</symbol>
<symbol id="icon-tag" viewBox="0 0 32 32">
<title>tag</title>
<path d="M30.5 0h-12c-0.825 0-1.977 0.477-2.561 1.061l-14.879 14.879c-0.583 0.583-0.583 1.538 0 2.121l12.879 12.879c0.583 0.583 1.538 0.583 2.121 0l14.879-14.879c0.583-0.583 1.061-1.736 1.061-2.561v-12c0-0.825-0.675-1.5-1.5-1.5zM23 12c-1.657 0-3-1.343-3-3s1.343-3 3-3 3 1.343 3 3-1.343 3-3 3z"></path>
</symbol>
<symbol id="icon-clock" viewBox="0 0 32 32">
<title>clock</title>
<path d="M20.586 23.414l-6.586-6.586v-8.828h4v7.172l5.414 5.414zM16 0c-8.837 0-16 7.163-16 16s7.163 16 16 16 16-7.163 16-16-7.163-16-16-16zM16 28c-6.627 0-12-5.373-12-12s5.373-12 12-12c6.627 0 12 5.373 12 12s-5.373 12-12 12z"></path>
</symbol>
<symbol id="icon-user" viewBox="0 0 32 32">
<title>user</title>
<path d="M18 22.082v-1.649c2.203-1.241 4-4.337 4-7.432 0-4.971 0-9-6-9s-6 4.029-6 9c0 3.096 1.797 6.191 4 7.432v1.649c-6.784 0.555-12 3.888-12 7.918h28c0-4.030-5.216-7.364-12-7.918z"></path>
</symbol>
</defs>
</svg>
